<?xml version="1.0" encoding="UTF-8" standalone="no"?>
<!DOCTYPE svg PUBLIC "-//W3C//DTD SVG 1.1//EN" "http://www.w3.org/Graphics/SVG/1.1/DTD/svg11.dtd">
<svg width="100%" height="100%" viewBox="0 0 2929 481" version="1.1" xmlns="http://www.w3.org/2000/svg" xmlns:xlink="http://www.w3.org/1999/xlink" xml:space="preserve" xmlns:serif="http://www.serif.com/" style="fill-rule:evenodd;clip-rule:evenodd;stroke-linejoin:round;stroke-miterlimit:2;">
    <g transform="matrix(1,0,0,1,-3588,-2307)">
        <g id="Full-Logo-BW-Inverse" serif:id="Full Logo BW Inverse" transform="matrix(1,0,0,1,3228.07,2307.99)">
            <rect x="360" y="0" width="2928.09" height="479.483" style="fill:none;"/>
            <clipPath id="_clip1">
                <rect x="360" y="0" width="2928.09" height="479.483"/>
            </clipPath>
            <g clip-path="url(#_clip1)">
                <g transform="matrix(0.776992,0,0,0.776992,-1010.23,-2053.24)">
                    <g transform="matrix(317.113,0,0,317.113,2554,2867.39)">
                        <path d="M0.53,-0.251C0.53,-0.21 0.524,-0.17 0.511,-0.133C0.498,-0.096 0.479,-0.064 0.452,-0.039C0.435,-0.023 0.416,-0.01 0.394,-0.001C0.371,0.008 0.345,0.013 0.316,0.013C0.298,0.013 0.28,0.011 0.264,0.006C0.247,0.001 0.231,-0.005 0.216,-0.014C0.201,-0.023 0.188,-0.033 0.177,-0.045C0.165,-0.057 0.156,-0.07 0.149,-0.084L0.149,0.2L0.099,0.2L0.099,-0.5L0.143,-0.5L0.149,-0.412C0.156,-0.427 0.165,-0.441 0.177,-0.454C0.189,-0.467 0.202,-0.477 0.217,-0.486C0.232,-0.495 0.248,-0.501 0.265,-0.506C0.282,-0.511 0.298,-0.513 0.315,-0.513C0.344,-0.513 0.369,-0.509 0.391,-0.501C0.412,-0.492 0.431,-0.481 0.448,-0.466C0.476,-0.441 0.497,-0.41 0.51,-0.373C0.523,-0.335 0.53,-0.294 0.53,-0.251ZM0.479,-0.25C0.479,-0.286 0.474,-0.32 0.464,-0.351C0.453,-0.382 0.436,-0.408 0.413,-0.429C0.4,-0.44 0.386,-0.449 0.37,-0.455C0.354,-0.461 0.335,-0.464 0.314,-0.464C0.292,-0.464 0.273,-0.46 0.256,-0.453C0.239,-0.446 0.225,-0.436 0.212,-0.424C0.189,-0.402 0.173,-0.376 0.163,-0.347C0.153,-0.317 0.148,-0.285 0.148,-0.25C0.148,-0.213 0.153,-0.18 0.162,-0.151C0.171,-0.122 0.188,-0.096 0.211,-0.075C0.224,-0.063 0.239,-0.054 0.256,-0.047C0.273,-0.04 0.293,-0.036 0.316,-0.036C0.339,-0.036 0.36,-0.04 0.377,-0.048C0.394,-0.056 0.41,-0.067 0.423,-0.08C0.442,-0.101 0.456,-0.127 0.466,-0.157C0.475,-0.187 0.479,-0.218 0.479,-0.25Z" style="fill-rule:nonzero;"/>
                    </g>
                    <g transform="matrix(317.113,0,0,317.113,2739.2,2867.39)">
                        <path d="M0.357,-0.452C0.349,-0.454 0.341,-0.455 0.333,-0.456C0.324,-0.457 0.316,-0.457 0.308,-0.457C0.277,-0.457 0.251,-0.451 0.231,-0.438C0.21,-0.425 0.194,-0.409 0.182,-0.388C0.17,-0.367 0.162,-0.344 0.157,-0.318C0.152,-0.292 0.149,-0.266 0.149,-0.24L0.149,-0L0.099,-0L0.099,-0.5L0.143,-0.5L0.149,-0.399C0.16,-0.434 0.181,-0.46 0.211,-0.478C0.24,-0.496 0.273,-0.505 0.308,-0.505C0.316,-0.505 0.324,-0.505 0.333,-0.505C0.341,-0.504 0.349,-0.503 0.357,-0.502L0.357,-0.452Z" style="fill-rule:nonzero;"/>
                    </g>
                    <g transform="matrix(317.113,0,0,317.113,2854.31,2867.39)">
                        <path d="M0.49,-0.25C0.49,-0.207 0.485,-0.169 0.474,-0.136C0.463,-0.103 0.445,-0.073 0.419,-0.047C0.402,-0.03 0.381,-0.015 0.357,-0.004C0.332,0.007 0.304,0.013 0.273,0.013C0.242,0.013 0.214,0.007 0.19,-0.004C0.165,-0.015 0.144,-0.03 0.127,-0.047C0.101,-0.073 0.083,-0.103 0.072,-0.136C0.061,-0.169 0.056,-0.207 0.056,-0.25C0.056,-0.293 0.061,-0.331 0.072,-0.364C0.083,-0.397 0.101,-0.427 0.127,-0.453C0.144,-0.47 0.165,-0.485 0.19,-0.496C0.214,-0.507 0.242,-0.513 0.273,-0.513C0.304,-0.513 0.332,-0.507 0.357,-0.496C0.381,-0.485 0.402,-0.47 0.419,-0.453C0.445,-0.427 0.463,-0.397 0.474,-0.364C0.485,-0.331 0.49,-0.293 0.49,-0.25ZM0.439,-0.25C0.439,-0.283 0.435,-0.313 0.428,-0.342C0.421,-0.371 0.406,-0.397 0.383,-0.42C0.37,-0.433 0.354,-0.444 0.336,-0.452C0.318,-0.46 0.297,-0.464 0.273,-0.464C0.249,-0.464 0.228,-0.46 0.21,-0.452C0.192,-0.444 0.176,-0.433 0.163,-0.42C0.14,-0.397 0.125,-0.371 0.118,-0.342C0.111,-0.313 0.107,-0.283 0.107,-0.25C0.107,-0.217 0.111,-0.187 0.118,-0.158C0.125,-0.129 0.14,-0.103 0.163,-0.08C0.176,-0.067 0.192,-0.056 0.21,-0.048C0.228,-0.04 0.249,-0.036 0.273,-0.036C0.297,-0.036 0.318,-0.04 0.336,-0.048C0.354,-0.056 0.37,-0.067 0.383,-0.08C0.406,-0.103 0.421,-0.129 0.428,-0.158C0.435,-0.187 0.439,-0.217 0.439,-0.25Z" style="fill-rule:nonzero;"/>
                    </g>
                    <g transform="matrix(317.113,0,0,317.113,3027.45,2867.39)">
                        <path d="M0.468,-0.158C0.465,-0.134 0.458,-0.112 0.447,-0.091C0.436,-0.07 0.422,-0.051 0.405,-0.036C0.388,-0.021 0.368,-0.009 0.346,-0C0.323,0.009 0.299,0.013 0.273,0.013C0.242,0.013 0.214,0.008 0.189,-0.004C0.164,-0.015 0.143,-0.029 0.126,-0.046C0.1,-0.072 0.082,-0.102 0.072,-0.136C0.061,-0.169 0.056,-0.207 0.056,-0.25C0.056,-0.293 0.061,-0.331 0.072,-0.365C0.082,-0.398 0.1,-0.428 0.126,-0.454C0.143,-0.471 0.164,-0.486 0.189,-0.497C0.214,-0.507 0.242,-0.513 0.273,-0.513C0.299,-0.513 0.323,-0.509 0.346,-0.501C0.368,-0.493 0.387,-0.482 0.404,-0.467C0.421,-0.452 0.434,-0.434 0.445,-0.413C0.456,-0.392 0.463,-0.369 0.466,-0.344L0.414,-0.344C0.409,-0.379 0.393,-0.407 0.368,-0.43C0.343,-0.453 0.311,-0.464 0.273,-0.464C0.249,-0.464 0.228,-0.46 0.21,-0.453C0.191,-0.445 0.175,-0.434 0.162,-0.421C0.139,-0.398 0.125,-0.372 0.118,-0.343C0.111,-0.314 0.107,-0.283 0.107,-0.25C0.107,-0.217 0.111,-0.186 0.118,-0.157C0.125,-0.128 0.139,-0.101 0.162,-0.078C0.189,-0.05 0.226,-0.036 0.273,-0.036C0.312,-0.036 0.343,-0.048 0.369,-0.072C0.394,-0.095 0.409,-0.124 0.415,-0.158L0.468,-0.158Z" style="fill-rule:nonzero;"/>
                    </g>
                    <g transform="matrix(317.113,0,0,317.113,3189.82,2867.39)">
                        <path d="M0.488,-0.238L0.106,-0.238C0.107,-0.209 0.112,-0.181 0.121,-0.156C0.13,-0.13 0.142,-0.107 0.158,-0.088C0.172,-0.071 0.189,-0.058 0.209,-0.049C0.228,-0.04 0.252,-0.035 0.279,-0.035C0.324,-0.035 0.36,-0.05 0.388,-0.079C0.397,-0.088 0.405,-0.099 0.412,-0.11C0.418,-0.121 0.423,-0.135 0.426,-0.15L0.478,-0.15C0.475,-0.129 0.468,-0.109 0.458,-0.092C0.448,-0.074 0.436,-0.058 0.422,-0.045C0.404,-0.027 0.383,-0.013 0.359,-0.003C0.334,0.008 0.308,0.013 0.279,0.013C0.243,0.013 0.212,0.006 0.186,-0.007C0.16,-0.02 0.138,-0.037 0.12,-0.058C0.099,-0.082 0.084,-0.11 0.073,-0.143C0.062,-0.175 0.056,-0.21 0.056,-0.248C0.056,-0.28 0.059,-0.311 0.066,-0.341C0.073,-0.371 0.086,-0.399 0.105,-0.426C0.148,-0.484 0.204,-0.513 0.275,-0.513C0.309,-0.513 0.339,-0.506 0.366,-0.493C0.392,-0.48 0.414,-0.462 0.433,-0.44C0.451,-0.417 0.465,-0.391 0.475,-0.362C0.484,-0.333 0.489,-0.302 0.489,-0.271L0.488,-0.238ZM0.438,-0.284C0.437,-0.308 0.433,-0.331 0.426,-0.353C0.419,-0.374 0.408,-0.394 0.394,-0.411C0.38,-0.428 0.363,-0.441 0.343,-0.451C0.323,-0.461 0.3,-0.466 0.275,-0.466C0.249,-0.466 0.226,-0.461 0.205,-0.452C0.184,-0.442 0.167,-0.429 0.153,-0.412C0.138,-0.395 0.127,-0.376 0.119,-0.354C0.111,-0.332 0.107,-0.309 0.107,-0.284L0.438,-0.284Z" style="fill-rule:nonzero;"/>
                    </g>
                    <g transform="matrix(317.113,0,0,317.113,3360.74,2867.39)">
                        <path d="M0.456,-0.139C0.456,-0.104 0.445,-0.073 0.422,-0.047C0.404,-0.027 0.381,-0.012 0.353,-0.002C0.324,0.008 0.293,0.013 0.26,0.013C0.226,0.013 0.195,0.008 0.167,-0.003C0.139,-0.014 0.115,-0.03 0.096,-0.051C0.082,-0.067 0.072,-0.083 0.066,-0.098C0.059,-0.113 0.055,-0.131 0.054,-0.152L0.105,-0.152C0.108,-0.123 0.12,-0.097 0.142,-0.075C0.157,-0.061 0.174,-0.051 0.194,-0.045C0.214,-0.038 0.236,-0.035 0.26,-0.035C0.286,-0.035 0.309,-0.038 0.329,-0.044C0.349,-0.05 0.365,-0.059 0.378,-0.072C0.387,-0.081 0.394,-0.091 0.399,-0.1C0.403,-0.109 0.405,-0.121 0.405,-0.136C0.405,-0.159 0.397,-0.179 0.382,-0.196C0.366,-0.213 0.343,-0.223 0.313,-0.227L0.216,-0.24C0.195,-0.243 0.175,-0.248 0.155,-0.255C0.134,-0.262 0.117,-0.274 0.103,-0.29C0.084,-0.312 0.075,-0.338 0.075,-0.369C0.075,-0.389 0.079,-0.407 0.087,-0.424C0.094,-0.44 0.105,-0.454 0.118,-0.466C0.136,-0.483 0.157,-0.495 0.181,-0.502C0.204,-0.509 0.229,-0.513 0.255,-0.513C0.285,-0.513 0.313,-0.508 0.34,-0.499C0.367,-0.489 0.389,-0.474 0.406,-0.454C0.417,-0.441 0.426,-0.426 0.433,-0.41C0.44,-0.394 0.443,-0.378 0.444,-0.362L0.394,-0.362C0.393,-0.37 0.39,-0.38 0.387,-0.391C0.383,-0.402 0.377,-0.413 0.369,-0.422C0.358,-0.435 0.342,-0.446 0.323,-0.454C0.304,-0.462 0.281,-0.466 0.255,-0.466C0.216,-0.466 0.186,-0.458 0.165,-0.443C0.139,-0.424 0.126,-0.401 0.126,-0.374C0.126,-0.353 0.133,-0.335 0.146,-0.32C0.159,-0.305 0.185,-0.295 0.223,-0.29L0.318,-0.277C0.341,-0.274 0.362,-0.268 0.379,-0.259C0.396,-0.249 0.411,-0.239 0.422,-0.226C0.433,-0.213 0.442,-0.2 0.448,-0.185C0.453,-0.169 0.456,-0.154 0.456,-0.139Z" style="fill-rule:nonzero;"/>
                    </g>
                    <g transform="matrix(317.113,0,0,317.113,3523.1,2867.39)">
                        <path d="M0.456,-0.139C0.456,-0.104 0.445,-0.073 0.422,-0.047C0.404,-0.027 0.381,-0.012 0.353,-0.002C0.324,0.008 0.293,0.013 0.26,0.013C0.226,0.013 0.195,0.008 0.167,-0.003C0.139,-0.014 0.115,-0.03 0.096,-0.051C0.082,-0.067 0.072,-0.083 0.066,-0.098C0.059,-0.113 0.055,-0.131 0.054,-0.152L0.105,-0.152C0.108,-0.123 0.12,-0.097 0.142,-0.075C0.157,-0.061 0.174,-0.051 0.194,-0.045C0.214,-0.038 0.236,-0.035 0.26,-0.035C0.286,-0.035 0.309,-0.038 0.329,-0.044C0.349,-0.05 0.365,-0.059 0.378,-0.072C0.387,-0.081 0.394,-0.091 0.399,-0.1C0.403,-0.109 0.405,-0.121 0.405,-0.136C0.405,-0.159 0.397,-0.179 0.382,-0.196C0.366,-0.213 0.343,-0.223 0.313,-0.227L0.216,-0.24C0.195,-0.243 0.175,-0.248 0.155,-0.255C0.134,-0.262 0.117,-0.274 0.103,-0.29C0.084,-0.312 0.075,-0.338 0.075,-0.369C0.075,-0.389 0.079,-0.407 0.087,-0.424C0.094,-0.44 0.105,-0.454 0.118,-0.466C0.136,-0.483 0.157,-0.495 0.181,-0.502C0.204,-0.509 0.229,-0.513 0.255,-0.513C0.285,-0.513 0.313,-0.508 0.34,-0.499C0.367,-0.489 0.389,-0.474 0.406,-0.454C0.417,-0.441 0.426,-0.426 0.433,-0.41C0.44,-0.394 0.443,-0.378 0.444,-0.362L0.394,-0.362C0.393,-0.37 0.39,-0.38 0.387,-0.391C0.383,-0.402 0.377,-0.413 0.369,-0.422C0.358,-0.435 0.342,-0.446 0.323,-0.454C0.304,-0.462 0.281,-0.466 0.255,-0.466C0.216,-0.466 0.186,-0.458 0.165,-0.443C0.139,-0.424 0.126,-0.401 0.126,-0.374C0.126,-0.353 0.133,-0.335 0.146,-0.32C0.159,-0.305 0.185,-0.295 0.223,-0.29L0.318,-0.277C0.341,-0.274 0.362,-0.268 0.379,-0.259C0.396,-0.249 0.411,-0.239 0.422,-0.226C0.433,-0.213 0.442,-0.2 0.448,-0.185C0.453,-0.169 0.456,-0.154 0.456,-0.139Z" style="fill-rule:nonzero;"/>
                    </g>
                    <g transform="matrix(317.113,0,0,317.113,3753.64,2867.39)">
                        <path d="M0.513,-0C0.507,0.001 0.503,0.002 0.501,0.003C0.499,0.003 0.495,0.003 0.489,0.003C0.474,0.003 0.461,0 0.451,-0.005C0.44,-0.01 0.432,-0.018 0.426,-0.027C0.42,-0.035 0.416,-0.046 0.414,-0.058C0.411,-0.069 0.41,-0.082 0.41,-0.095C0.403,-0.077 0.394,-0.061 0.382,-0.048C0.369,-0.035 0.355,-0.024 0.339,-0.015C0.323,-0.006 0.306,0.001 0.287,0.006C0.268,0.011 0.249,0.013 0.23,0.013C0.206,0.013 0.184,0.01 0.163,0.003C0.141,-0.005 0.123,-0.015 0.108,-0.028C0.092,-0.041 0.08,-0.057 0.071,-0.077C0.062,-0.095 0.058,-0.117 0.058,-0.141C0.058,-0.186 0.074,-0.221 0.105,-0.247C0.135,-0.272 0.176,-0.287 0.226,-0.29L0.41,-0.303L0.41,-0.352C0.41,-0.393 0.398,-0.423 0.373,-0.44C0.347,-0.457 0.316,-0.466 0.278,-0.466C0.238,-0.466 0.205,-0.457 0.178,-0.439C0.151,-0.421 0.137,-0.393 0.134,-0.356L0.084,-0.356C0.086,-0.381 0.092,-0.404 0.103,-0.423C0.113,-0.442 0.127,-0.459 0.144,-0.472C0.161,-0.485 0.18,-0.496 0.203,-0.503C0.226,-0.51 0.251,-0.513 0.278,-0.513C0.295,-0.513 0.312,-0.511 0.329,-0.509C0.346,-0.506 0.363,-0.5 0.378,-0.493C0.393,-0.486 0.407,-0.476 0.419,-0.465C0.431,-0.453 0.44,-0.438 0.447,-0.421C0.453,-0.406 0.457,-0.39 0.458,-0.374C0.459,-0.358 0.46,-0.342 0.46,-0.325L0.46,-0.097C0.46,-0.08 0.462,-0.066 0.467,-0.057C0.471,-0.048 0.482,-0.043 0.499,-0.043C0.505,-0.043 0.51,-0.043 0.513,-0.044L0.513,-0ZM0.41,-0.257L0.231,-0.246C0.194,-0.243 0.164,-0.233 0.142,-0.215C0.12,-0.196 0.109,-0.172 0.109,-0.141C0.109,-0.105 0.121,-0.078 0.145,-0.06C0.168,-0.042 0.198,-0.033 0.234,-0.033C0.265,-0.033 0.292,-0.039 0.315,-0.051C0.337,-0.062 0.355,-0.077 0.369,-0.096C0.383,-0.115 0.393,-0.136 0.4,-0.16C0.407,-0.183 0.41,-0.207 0.41,-0.231L0.41,-0.257Z" style="fill-rule:nonzero;"/>
                    </g>
                    <g transform="matrix(317.113,0,0,317.113,3929.96,2867.39)">
                        <path d="M0.44,-0.001L0.434,-0.092C0.427,-0.076 0.417,-0.062 0.406,-0.049C0.394,-0.036 0.381,-0.025 0.366,-0.016C0.351,-0.007 0.334,0 0.317,0.005C0.3,0.01 0.282,0.012 0.265,0.012C0.207,0.012 0.163,-0.004 0.134,-0.037C0.104,-0.07 0.089,-0.114 0.089,-0.171L0.089,-0.501L0.139,-0.501L0.139,-0.174C0.139,-0.13 0.149,-0.096 0.169,-0.073C0.189,-0.049 0.222,-0.037 0.268,-0.037C0.299,-0.037 0.325,-0.043 0.346,-0.055C0.367,-0.067 0.385,-0.083 0.398,-0.103C0.411,-0.123 0.42,-0.146 0.426,-0.172C0.431,-0.197 0.434,-0.224 0.434,-0.251L0.434,-0.501L0.484,-0.501L0.484,-0.001L0.44,-0.001Z" style="fill-rule:nonzero;"/>
                    </g>
                    <g transform="matrix(317.113,0,0,317.113,4114.83,2867.39)">
                        <path d="M0.336,-0.005C0.322,-0.002 0.308,0.001 0.295,0.004C0.281,0.006 0.267,0.007 0.253,0.007C0.206,0.007 0.173,-0.007 0.154,-0.034C0.134,-0.061 0.124,-0.096 0.124,-0.139L0.124,-0.454L0.024,-0.454L0.024,-0.5L0.124,-0.5L0.124,-0.638L0.174,-0.65L0.174,-0.5L0.329,-0.5L0.329,-0.454L0.174,-0.454L0.174,-0.141C0.174,-0.126 0.175,-0.113 0.178,-0.101C0.18,-0.088 0.184,-0.078 0.191,-0.069C0.197,-0.059 0.205,-0.053 0.216,-0.048C0.227,-0.043 0.24,-0.04 0.257,-0.04C0.27,-0.04 0.284,-0.041 0.297,-0.043C0.31,-0.044 0.323,-0.046 0.336,-0.049L0.336,-0.005Z" style="fill-rule:nonzero;"/>
                    </g>
                    <g transform="matrix(317.113,0,0,317.113,4228.99,2867.39)">
                        <path d="M0.49,-0.25C0.49,-0.207 0.485,-0.169 0.474,-0.136C0.463,-0.103 0.445,-0.073 0.419,-0.047C0.402,-0.03 0.381,-0.015 0.357,-0.004C0.332,0.007 0.304,0.013 0.273,0.013C0.242,0.013 0.214,0.007 0.19,-0.004C0.165,-0.015 0.144,-0.03 0.127,-0.047C0.101,-0.073 0.083,-0.103 0.072,-0.136C0.061,-0.169 0.056,-0.207 0.056,-0.25C0.056,-0.293 0.061,-0.331 0.072,-0.364C0.083,-0.397 0.101,-0.427 0.127,-0.453C0.144,-0.47 0.165,-0.485 0.19,-0.496C0.214,-0.507 0.242,-0.513 0.273,-0.513C0.304,-0.513 0.332,-0.507 0.357,-0.496C0.381,-0.485 0.402,-0.47 0.419,-0.453C0.445,-0.427 0.463,-0.397 0.474,-0.364C0.485,-0.331 0.49,-0.293 0.49,-0.25ZM0.439,-0.25C0.439,-0.283 0.435,-0.313 0.428,-0.342C0.421,-0.371 0.406,-0.397 0.383,-0.42C0.37,-0.433 0.354,-0.444 0.336,-0.452C0.318,-0.46 0.297,-0.464 0.273,-0.464C0.249,-0.464 0.228,-0.46 0.21,-0.452C0.192,-0.444 0.176,-0.433 0.163,-0.42C0.14,-0.397 0.125,-0.371 0.118,-0.342C0.111,-0.313 0.107,-0.283 0.107,-0.25C0.107,-0.217 0.111,-0.187 0.118,-0.158C0.125,-0.129 0.14,-0.103 0.163,-0.08C0.176,-0.067 0.192,-0.056 0.21,-0.048C0.228,-0.04 0.249,-0.036 0.273,-0.036C0.297,-0.036 0.318,-0.04 0.336,-0.048C0.354,-0.056 0.37,-0.067 0.383,-0.08C0.406,-0.103 0.421,-0.129 0.428,-0.158C0.435,-0.187 0.439,-0.217 0.439,-0.25Z" style="fill-rule:nonzero;"/>
                    </g>
                    <g transform="matrix(317.113,0,0,317.113,4402.14,2867.39)">
                        <path d="M0.736,-0L0.736,-0.327C0.736,-0.37 0.727,-0.404 0.709,-0.429C0.691,-0.454 0.66,-0.466 0.617,-0.466C0.598,-0.466 0.581,-0.463 0.567,-0.457C0.552,-0.451 0.539,-0.443 0.528,-0.432C0.509,-0.413 0.494,-0.391 0.484,-0.366C0.474,-0.341 0.469,-0.313 0.469,-0.283L0.469,-0L0.418,-0L0.418,-0.327C0.418,-0.37 0.409,-0.404 0.391,-0.429C0.372,-0.454 0.341,-0.466 0.298,-0.466C0.279,-0.466 0.262,-0.463 0.248,-0.457C0.233,-0.451 0.22,-0.443 0.209,-0.432C0.186,-0.411 0.171,-0.384 0.162,-0.352C0.153,-0.32 0.149,-0.286 0.149,-0.25L0.149,-0L0.099,-0L0.099,-0.5L0.143,-0.5L0.149,-0.414C0.162,-0.443 0.182,-0.466 0.208,-0.485C0.234,-0.504 0.265,-0.513 0.301,-0.513C0.345,-0.513 0.38,-0.503 0.406,-0.484C0.431,-0.464 0.449,-0.438 0.459,-0.405C0.472,-0.436 0.492,-0.462 0.519,-0.483C0.545,-0.503 0.579,-0.513 0.62,-0.513C0.649,-0.513 0.675,-0.509 0.696,-0.5C0.716,-0.491 0.734,-0.478 0.747,-0.462C0.76,-0.445 0.77,-0.426 0.777,-0.404C0.783,-0.381 0.786,-0.357 0.786,-0.33L0.786,-0L0.736,-0Z" style="fill-rule:nonzero;"/>
                    </g>
                    <g transform="matrix(317.113,0,0,317.113,4679.61,2867.39)">
                        <path d="M0.513,-0C0.507,0.001 0.503,0.002 0.501,0.003C0.499,0.003 0.495,0.003 0.489,0.003C0.474,0.003 0.461,0 0.451,-0.005C0.44,-0.01 0.432,-0.018 0.426,-0.027C0.42,-0.035 0.416,-0.046 0.414,-0.058C0.411,-0.069 0.41,-0.082 0.41,-0.095C0.403,-0.077 0.394,-0.061 0.382,-0.048C0.369,-0.035 0.355,-0.024 0.339,-0.015C0.323,-0.006 0.306,0.001 0.287,0.006C0.268,0.011 0.249,0.013 0.23,0.013C0.206,0.013 0.184,0.01 0.163,0.003C0.141,-0.005 0.123,-0.015 0.108,-0.028C0.092,-0.041 0.08,-0.057 0.071,-0.077C0.062,-0.095 0.058,-0.117 0.058,-0.141C0.058,-0.186 0.074,-0.221 0.105,-0.247C0.135,-0.272 0.176,-0.287 0.226,-0.29L0.41,-0.303L0.41,-0.352C0.41,-0.393 0.398,-0.423 0.373,-0.44C0.347,-0.457 0.316,-0.466 0.278,-0.466C0.238,-0.466 0.205,-0.457 0.178,-0.439C0.151,-0.421 0.137,-0.393 0.134,-0.356L0.084,-0.356C0.086,-0.381 0.092,-0.404 0.103,-0.423C0.113,-0.442 0.127,-0.459 0.144,-0.472C0.161,-0.485 0.18,-0.496 0.203,-0.503C0.226,-0.51 0.251,-0.513 0.278,-0.513C0.295,-0.513 0.312,-0.511 0.329,-0.509C0.346,-0.506 0.363,-0.5 0.378,-0.493C0.393,-0.486 0.407,-0.476 0.419,-0.465C0.431,-0.453 0.44,-0.438 0.447,-0.421C0.453,-0.406 0.457,-0.39 0.458,-0.374C0.459,-0.358 0.46,-0.342 0.46,-0.325L0.46,-0.097C0.46,-0.08 0.462,-0.066 0.467,-0.057C0.471,-0.048 0.482,-0.043 0.499,-0.043C0.505,-0.043 0.51,-0.043 0.513,-0.044L0.513,-0ZM0.41,-0.257L0.231,-0.246C0.194,-0.243 0.164,-0.233 0.142,-0.215C0.12,-0.196 0.109,-0.172 0.109,-0.141C0.109,-0.105 0.121,-0.078 0.145,-0.06C0.168,-0.042 0.198,-0.033 0.234,-0.033C0.265,-0.033 0.292,-0.039 0.315,-0.051C0.337,-0.062 0.355,-0.077 0.369,-0.096C0.383,-0.115 0.393,-0.136 0.4,-0.16C0.407,-0.183 0.41,-0.207 0.41,-0.231L0.41,-0.257Z" style="fill-rule:nonzero;"/>
                    </g>
                    <g transform="matrix(317.113,0,0,317.113,4855.93,2867.39)">
                        <path d="M0.336,-0.005C0.322,-0.002 0.308,0.001 0.295,0.004C0.281,0.006 0.267,0.007 0.253,0.007C0.206,0.007 0.173,-0.007 0.154,-0.034C0.134,-0.061 0.124,-0.096 0.124,-0.139L0.124,-0.454L0.024,-0.454L0.024,-0.5L0.124,-0.5L0.124,-0.638L0.174,-0.65L0.174,-0.5L0.329,-0.5L0.329,-0.454L0.174,-0.454L0.174,-0.141C0.174,-0.126 0.175,-0.113 0.178,-0.101C0.18,-0.088 0.184,-0.078 0.191,-0.069C0.197,-0.059 0.205,-0.053 0.216,-0.048C0.227,-0.043 0.24,-0.04 0.257,-0.04C0.27,-0.04 0.284,-0.041 0.297,-0.043C0.31,-0.044 0.323,-0.046 0.336,-0.049L0.336,-0.005Z" style="fill-rule:nonzero;"/>
                    </g>
                    <g transform="matrix(317.113,0,0,317.113,4973.26,2867.39)">
                        <path d="M0.095,-0.639L0.095,-0.709L0.165,-0.709L0.165,-0.639L0.095,-0.639ZM0.104,-0L0.104,-0.5L0.157,-0.5L0.157,-0L0.104,-0Z" style="fill-rule:nonzero;"/>
                    </g>
                    <g transform="matrix(317.113,0,0,317.113,5055.71,2867.39)">
                        <path d="M0.49,-0.25C0.49,-0.207 0.485,-0.169 0.474,-0.136C0.463,-0.103 0.445,-0.073 0.419,-0.047C0.402,-0.03 0.381,-0.015 0.357,-0.004C0.332,0.007 0.304,0.013 0.273,0.013C0.242,0.013 0.214,0.007 0.19,-0.004C0.165,-0.015 0.144,-0.03 0.127,-0.047C0.101,-0.073 0.083,-0.103 0.072,-0.136C0.061,-0.169 0.056,-0.207 0.056,-0.25C0.056,-0.293 0.061,-0.331 0.072,-0.364C0.083,-0.397 0.101,-0.427 0.127,-0.453C0.144,-0.47 0.165,-0.485 0.19,-0.496C0.214,-0.507 0.242,-0.513 0.273,-0.513C0.304,-0.513 0.332,-0.507 0.357,-0.496C0.381,-0.485 0.402,-0.47 0.419,-0.453C0.445,-0.427 0.463,-0.397 0.474,-0.364C0.485,-0.331 0.49,-0.293 0.49,-0.25ZM0.439,-0.25C0.439,-0.283 0.435,-0.313 0.428,-0.342C0.421,-0.371 0.406,-0.397 0.383,-0.42C0.37,-0.433 0.354,-0.444 0.336,-0.452C0.318,-0.46 0.297,-0.464 0.273,-0.464C0.249,-0.464 0.228,-0.46 0.21,-0.452C0.192,-0.444 0.176,-0.433 0.163,-0.42C0.14,-0.397 0.125,-0.371 0.118,-0.342C0.111,-0.313 0.107,-0.283 0.107,-0.25C0.107,-0.217 0.111,-0.187 0.118,-0.158C0.125,-0.129 0.14,-0.103 0.163,-0.08C0.176,-0.067 0.192,-0.056 0.21,-0.048C0.228,-0.04 0.249,-0.036 0.273,-0.036C0.297,-0.036 0.318,-0.04 0.336,-0.048C0.354,-0.056 0.37,-0.067 0.383,-0.08C0.406,-0.103 0.421,-0.129 0.428,-0.158C0.435,-0.187 0.439,-0.217 0.439,-0.25Z" style="fill-rule:nonzero;"/>
                    </g>
                    <g transform="matrix(317.113,0,0,317.113,5228.85,2867.39)">
                        <path d="M0.444,-0L0.444,-0.327C0.444,-0.371 0.434,-0.405 0.414,-0.429C0.394,-0.452 0.361,-0.464 0.315,-0.464C0.284,-0.464 0.258,-0.458 0.237,-0.446C0.216,-0.433 0.199,-0.417 0.186,-0.397C0.173,-0.377 0.163,-0.354 0.158,-0.329C0.152,-0.303 0.149,-0.277 0.149,-0.25L0.149,-0L0.099,-0L0.099,-0.5L0.143,-0.5L0.149,-0.409C0.156,-0.425 0.165,-0.439 0.177,-0.452C0.189,-0.465 0.203,-0.476 0.218,-0.485C0.233,-0.494 0.249,-0.501 0.266,-0.506C0.283,-0.511 0.301,-0.513 0.318,-0.513C0.376,-0.513 0.42,-0.497 0.45,-0.464C0.479,-0.431 0.494,-0.387 0.494,-0.33L0.494,-0L0.444,-0Z" style="fill-rule:nonzero;"/>
                    </g>
                    <g transform="matrix(317.113,0,0,317.113,2554,3193.38)">
                        <path d="M0.456,-0.139C0.456,-0.104 0.445,-0.073 0.422,-0.047C0.404,-0.027 0.381,-0.012 0.353,-0.002C0.324,0.008 0.293,0.013 0.26,0.013C0.226,0.013 0.195,0.008 0.167,-0.003C0.139,-0.014 0.115,-0.03 0.096,-0.051C0.082,-0.067 0.072,-0.083 0.066,-0.098C0.059,-0.113 0.055,-0.131 0.054,-0.152L0.105,-0.152C0.108,-0.123 0.12,-0.097 0.142,-0.075C0.157,-0.061 0.174,-0.051 0.194,-0.045C0.214,-0.038 0.236,-0.035 0.26,-0.035C0.286,-0.035 0.309,-0.038 0.329,-0.044C0.349,-0.05 0.365,-0.059 0.378,-0.072C0.387,-0.081 0.394,-0.091 0.399,-0.1C0.403,-0.109 0.405,-0.121 0.405,-0.136C0.405,-0.159 0.397,-0.179 0.382,-0.196C0.366,-0.213 0.343,-0.223 0.313,-0.227L0.216,-0.24C0.195,-0.243 0.175,-0.248 0.155,-0.255C0.134,-0.262 0.117,-0.274 0.103,-0.29C0.084,-0.312 0.075,-0.338 0.075,-0.369C0.075,-0.389 0.079,-0.407 0.087,-0.424C0.094,-0.44 0.105,-0.454 0.118,-0.466C0.136,-0.483 0.157,-0.495 0.181,-0.502C0.204,-0.509 0.229,-0.513 0.255,-0.513C0.285,-0.513 0.313,-0.508 0.34,-0.499C0.367,-0.489 0.389,-0.474 0.406,-0.454C0.417,-0.441 0.426,-0.426 0.433,-0.41C0.44,-0.394 0.443,-0.378 0.444,-0.362L0.394,-0.362C0.393,-0.37 0.39,-0.38 0.387,-0.391C0.383,-0.402 0.377,-0.413 0.369,-0.422C0.358,-0.435 0.342,-0.446 0.323,-0.454C0.304,-0.462 0.281,-0.466 0.255,-0.466C0.216,-0.466 0.186,-0.458 0.165,-0.443C0.139,-0.424 0.126,-0.401 0.126,-0.374C0.126,-0.353 0.133,-0.335 0.146,-0.32C0.159,-0.305 0.185,-0.295 0.223,-0.29L0.318,-0.277C0.341,-0.274 0.362,-0.268 0.379,-0.259C0.396,-0.249 0.411,-0.239 0.422,-0.226C0.433,-0.213 0.442,-0.2 0.448,-0.185C0.453,-0.169 0.456,-0.154 0.456,-0.139Z" style="fill-rule:nonzero;"/>
                    </g>
                    <g transform="matrix(317.113,0,0,317.113,2713.2,3193.38)">
                        <path d="M0.235,0.107C0.222,0.14 0.205,0.165 0.184,0.183C0.162,0.2 0.134,0.209 0.1,0.209C0.09,0.209 0.081,0.209 0.073,0.208C0.065,0.207 0.058,0.206 0.053,0.205C0.046,0.204 0.041,0.202 0.037,0.2L0.037,0.158C0.044,0.159 0.051,0.16 0.058,0.161C0.07,0.163 0.083,0.164 0.098,0.164C0.122,0.164 0.141,0.157 0.155,0.143C0.169,0.129 0.18,0.111 0.189,0.09L0.221,0.008L0.016,-0.5L0.07,-0.5L0.245,-0.056L0.413,-0.5L0.467,-0.5L0.235,0.107Z" style="fill-rule:nonzero;"/>
                    </g>
                    <g transform="matrix(317.113,0,0,317.113,2861.92,3193.38)">
                        <path d="M0.456,-0.139C0.456,-0.104 0.445,-0.073 0.422,-0.047C0.404,-0.027 0.381,-0.012 0.353,-0.002C0.324,0.008 0.293,0.013 0.26,0.013C0.226,0.013 0.195,0.008 0.167,-0.003C0.139,-0.014 0.115,-0.03 0.096,-0.051C0.082,-0.067 0.072,-0.083 0.066,-0.098C0.059,-0.113 0.055,-0.131 0.054,-0.152L0.105,-0.152C0.108,-0.123 0.12,-0.097 0.142,-0.075C0.157,-0.061 0.174,-0.051 0.194,-0.045C0.214,-0.038 0.236,-0.035 0.26,-0.035C0.286,-0.035 0.309,-0.038 0.329,-0.044C0.349,-0.05 0.365,-0.059 0.378,-0.072C0.387,-0.081 0.394,-0.091 0.399,-0.1C0.403,-0.109 0.405,-0.121 0.405,-0.136C0.405,-0.159 0.397,-0.179 0.382,-0.196C0.366,-0.213 0.343,-0.223 0.313,-0.227L0.216,-0.24C0.195,-0.243 0.175,-0.248 0.155,-0.255C0.134,-0.262 0.117,-0.274 0.103,-0.29C0.084,-0.312 0.075,-0.338 0.075,-0.369C0.075,-0.389 0.079,-0.407 0.087,-0.424C0.094,-0.44 0.105,-0.454 0.118,-0.466C0.136,-0.483 0.157,-0.495 0.181,-0.502C0.204,-0.509 0.229,-0.513 0.255,-0.513C0.285,-0.513 0.313,-0.508 0.34,-0.499C0.367,-0.489 0.389,-0.474 0.406,-0.454C0.417,-0.441 0.426,-0.426 0.433,-0.41C0.44,-0.394 0.443,-0.378 0.444,-0.362L0.394,-0.362C0.393,-0.37 0.39,-0.38 0.387,-0.391C0.383,-0.402 0.377,-0.413 0.369,-0.422C0.358,-0.435 0.342,-0.446 0.323,-0.454C0.304,-0.462 0.281,-0.466 0.255,-0.466C0.216,-0.466 0.186,-0.458 0.165,-0.443C0.139,-0.424 0.126,-0.401 0.126,-0.374C0.126,-0.353 0.133,-0.335 0.146,-0.32C0.159,-0.305 0.185,-0.295 0.223,-0.29L0.318,-0.277C0.341,-0.274 0.362,-0.268 0.379,-0.259C0.396,-0.249 0.411,-0.239 0.422,-0.226C0.433,-0.213 0.442,-0.2 0.448,-0.185C0.453,-0.169 0.456,-0.154 0.456,-0.139Z" style="fill-rule:nonzero;"/>
                    </g>
                    <g transform="matrix(317.113,0,0,317.113,3022.7,3193.38)">
                        <path d="M0.336,-0.005C0.322,-0.002 0.308,0.001 0.295,0.004C0.281,0.006 0.267,0.007 0.253,0.007C0.206,0.007 0.173,-0.007 0.154,-0.034C0.134,-0.061 0.124,-0.096 0.124,-0.139L0.124,-0.454L0.024,-0.454L0.024,-0.5L0.124,-0.5L0.124,-0.638L0.174,-0.65L0.174,-0.5L0.329,-0.5L0.329,-0.454L0.174,-0.454L0.174,-0.141C0.174,-0.126 0.175,-0.113 0.178,-0.101C0.18,-0.088 0.184,-0.078 0.191,-0.069C0.197,-0.059 0.205,-0.053 0.216,-0.048C0.227,-0.043 0.24,-0.04 0.257,-0.04C0.27,-0.04 0.284,-0.041 0.297,-0.043C0.31,-0.044 0.323,-0.046 0.336,-0.049L0.336,-0.005Z" style="fill-rule:nonzero;"/>
                    </g>
                    <g transform="matrix(317.113,0,0,317.113,3136.86,3193.38)">
                        <path d="M0.488,-0.238L0.106,-0.238C0.107,-0.209 0.112,-0.181 0.121,-0.156C0.13,-0.13 0.142,-0.107 0.158,-0.088C0.172,-0.071 0.189,-0.058 0.209,-0.049C0.228,-0.04 0.252,-0.035 0.279,-0.035C0.324,-0.035 0.36,-0.05 0.388,-0.079C0.397,-0.088 0.405,-0.099 0.412,-0.11C0.418,-0.121 0.423,-0.135 0.426,-0.15L0.478,-0.15C0.475,-0.129 0.468,-0.109 0.458,-0.092C0.448,-0.074 0.436,-0.058 0.422,-0.045C0.404,-0.027 0.383,-0.013 0.359,-0.003C0.334,0.008 0.308,0.013 0.279,0.013C0.243,0.013 0.212,0.006 0.186,-0.007C0.16,-0.02 0.138,-0.037 0.12,-0.058C0.099,-0.082 0.084,-0.11 0.073,-0.143C0.062,-0.175 0.056,-0.21 0.056,-0.248C0.056,-0.28 0.059,-0.311 0.066,-0.341C0.073,-0.371 0.086,-0.399 0.105,-0.426C0.148,-0.484 0.204,-0.513 0.275,-0.513C0.309,-0.513 0.339,-0.506 0.366,-0.493C0.392,-0.48 0.414,-0.462 0.433,-0.44C0.451,-0.417 0.465,-0.391 0.475,-0.362C0.484,-0.333 0.489,-0.302 0.489,-0.271L0.488,-0.238ZM0.438,-0.284C0.437,-0.308 0.433,-0.331 0.426,-0.353C0.419,-0.374 0.408,-0.394 0.394,-0.411C0.38,-0.428 0.363,-0.441 0.343,-0.451C0.323,-0.461 0.3,-0.466 0.275,-0.466C0.249,-0.466 0.226,-0.461 0.205,-0.452C0.184,-0.442 0.167,-0.429 0.153,-0.412C0.138,-0.395 0.127,-0.376 0.119,-0.354C0.111,-0.332 0.107,-0.309 0.107,-0.284L0.438,-0.284Z" style="fill-rule:nonzero;"/>
                    </g>
                    <g transform="matrix(317.113,0,0,317.113,3307.78,3193.38)">
                        <path d="M0.736,-0L0.736,-0.327C0.736,-0.37 0.727,-0.404 0.709,-0.429C0.691,-0.454 0.66,-0.466 0.617,-0.466C0.598,-0.466 0.581,-0.463 0.567,-0.457C0.552,-0.451 0.539,-0.443 0.528,-0.432C0.509,-0.413 0.494,-0.391 0.484,-0.366C0.474,-0.341 0.469,-0.313 0.469,-0.283L0.469,-0L0.418,-0L0.418,-0.327C0.418,-0.37 0.409,-0.404 0.391,-0.429C0.372,-0.454 0.341,-0.466 0.298,-0.466C0.279,-0.466 0.262,-0.463 0.248,-0.457C0.233,-0.451 0.22,-0.443 0.209,-0.432C0.186,-0.411 0.171,-0.384 0.162,-0.352C0.153,-0.32 0.149,-0.286 0.149,-0.25L0.149,-0L0.099,-0L0.099,-0.5L0.143,-0.5L0.149,-0.414C0.162,-0.443 0.182,-0.466 0.208,-0.485C0.234,-0.504 0.265,-0.513 0.301,-0.513C0.345,-0.513 0.38,-0.503 0.406,-0.484C0.431,-0.464 0.449,-0.438 0.459,-0.405C0.472,-0.436 0.492,-0.462 0.519,-0.483C0.545,-0.503 0.579,-0.513 0.62,-0.513C0.649,-0.513 0.675,-0.509 0.696,-0.5C0.716,-0.491 0.734,-0.478 0.747,-0.462C0.76,-0.445 0.77,-0.426 0.777,-0.404C0.783,-0.381 0.786,-0.357 0.786,-0.33L0.786,-0L0.736,-0Z" style="fill-rule:nonzero;"/>
                    </g>
                    <g transform="matrix(317.113,0,0,317.113,3585.26,3193.38)">
                        <path d="M0.456,-0.139C0.456,-0.104 0.445,-0.073 0.422,-0.047C0.404,-0.027 0.381,-0.012 0.353,-0.002C0.324,0.008 0.293,0.013 0.26,0.013C0.226,0.013 0.195,0.008 0.167,-0.003C0.139,-0.014 0.115,-0.03 0.096,-0.051C0.082,-0.067 0.072,-0.083 0.066,-0.098C0.059,-0.113 0.055,-0.131 0.054,-0.152L0.105,-0.152C0.108,-0.123 0.12,-0.097 0.142,-0.075C0.157,-0.061 0.174,-0.051 0.194,-0.045C0.214,-0.038 0.236,-0.035 0.26,-0.035C0.286,-0.035 0.309,-0.038 0.329,-0.044C0.349,-0.05 0.365,-0.059 0.378,-0.072C0.387,-0.081 0.394,-0.091 0.399,-0.1C0.403,-0.109 0.405,-0.121 0.405,-0.136C0.405,-0.159 0.397,-0.179 0.382,-0.196C0.366,-0.213 0.343,-0.223 0.313,-0.227L0.216,-0.24C0.195,-0.243 0.175,-0.248 0.155,-0.255C0.134,-0.262 0.117,-0.274 0.103,-0.29C0.084,-0.312 0.075,-0.338 0.075,-0.369C0.075,-0.389 0.079,-0.407 0.087,-0.424C0.094,-0.44 0.105,-0.454 0.118,-0.466C0.136,-0.483 0.157,-0.495 0.181,-0.502C0.204,-0.509 0.229,-0.513 0.255,-0.513C0.285,-0.513 0.313,-0.508 0.34,-0.499C0.367,-0.489 0.389,-0.474 0.406,-0.454C0.417,-0.441 0.426,-0.426 0.433,-0.41C0.44,-0.394 0.443,-0.378 0.444,-0.362L0.394,-0.362C0.393,-0.37 0.39,-0.38 0.387,-0.391C0.383,-0.402 0.377,-0.413 0.369,-0.422C0.358,-0.435 0.342,-0.446 0.323,-0.454C0.304,-0.462 0.281,-0.466 0.255,-0.466C0.216,-0.466 0.186,-0.458 0.165,-0.443C0.139,-0.424 0.126,-0.401 0.126,-0.374C0.126,-0.353 0.133,-0.335 0.146,-0.32C0.159,-0.305 0.185,-0.295 0.223,-0.29L0.318,-0.277C0.341,-0.274 0.362,-0.268 0.379,-0.259C0.396,-0.249 0.411,-0.239 0.422,-0.226C0.433,-0.213 0.442,-0.2 0.448,-0.185C0.453,-0.169 0.456,-0.154 0.456,-0.139Z" style="fill-rule:nonzero;"/>
                    </g>
                </g>
                <g transform="matrix(0.0985265,-0.221694,0.205758,0.0914442,-2579.56,733.164)">
                    <g transform="matrix(12.8662,0,0,18.8409,4015.35,8410.64)">
                        <path d="M325.833,225.399C325.757,224.98 325.67,224.567 325.573,224.161C325.472,223.74 325.358,223.327 325.232,222.925C324.697,221.213 323.922,219.511 322.986,217.882C322.026,216.212 320.892,214.62 319.67,213.174C318.372,211.645 316.789,210.106 315.073,208.644C313.371,207.196 311.537,205.826 309.724,204.619C307.694,203.277 305.355,201.923 302.899,200.648C300.511,199.408 298.011,198.243 295.599,197.215C292.871,196.057 289.821,194.899 286.673,193.806C283.63,192.749 280.496,191.753 277.476,190.869C274.089,189.878 270.383,188.898 266.59,187.973C262.921,187.079 259.169,186.234 255.546,185.477C251.55,184.643 247.262,183.833 242.897,183.067C238.658,182.324 234.347,181.623 230.162,180.984C226.554,180.434 222.804,179.908 218.998,179.405C213.436,178.669 207.752,177.98 202.21,177.335C199.446,177.012 196.596,176.704 193.733,176.407C186.902,175.698 179.99,175.054 173.977,174.435C169.559,173.98 164.303,173.518 159.553,173.064C157.354,172.854 155.264,172.645 153.418,172.439C152.571,172.345 151.779,172.774 151.65,173.398C151.522,174.021 152.106,174.604 152.953,174.698C154.819,174.906 156.931,175.117 159.153,175.33C163.893,175.783 169.138,176.244 173.546,176.698C179.559,177.317 186.47,177.961 193.299,178.669C196.145,178.964 198.977,179.271 201.724,179.591C206.323,180.128 211.021,180.694 215.666,181.294C220.395,181.905 225.069,182.552 229.526,183.235C233.681,183.872 237.96,184.571 242.168,185.313C246.487,186.074 250.731,186.879 254.685,187.707C258.265,188.457 261.971,189.293 265.596,190.178C269.329,191.089 272.975,192.053 276.308,193.029C279.27,193.895 282.343,194.873 285.328,195.906C288.397,196.968 291.373,198.089 294.034,199.214C296.377,200.202 298.798,201.328 301.124,202.515C303.495,203.724 305.767,204.995 307.736,206.266C309.492,207.393 311.271,208.676 312.927,210.035C314.583,211.392 316.118,212.822 317.382,214.249C318.577,215.592 319.692,217.074 320.647,218.633C321.576,220.15 322.356,221.738 322.91,223.339L323.545,225.645C323.637,226.109 324.225,226.432 324.856,226.364C325.487,226.296 325.925,225.864 325.833,225.399Z"/>
                    </g>
                    <g transform="matrix(12.8662,0,0,18.8409,4015.35,8410.64)">
                        <path d="M331.211,224.08C331.209,223.657 331.194,223.241 331.166,222.834C331.137,222.406 331.091,221.987 331.03,221.581C330.766,219.829 330.209,218.108 329.449,216.473C328.657,214.77 327.64,213.163 326.499,211.713C325.296,210.191 323.742,208.667 322.031,207.238C320.34,205.827 318.494,204.51 316.686,203.378C314.62,202.092 312.183,200.806 309.615,199.61C307.143,198.457 304.549,197.388 302.07,196.463C299.213,195.4 295.986,194.35 292.653,193.371C289.453,192.431 286.155,191.556 282.998,190.79C279.414,189.921 275.475,189.075 271.443,188.286C267.558,187.525 263.588,186.817 259.765,186.19C255.521,185.495 250.958,184.831 246.314,184.213C241.814,183.614 237.238,183.059 232.803,182.56C228.965,182.128 224.973,181.723 220.92,181.341C215.004,180.784 208.959,180.275 203.07,179.807C199.164,179.497 195.087,179.212 191.029,178.946C184.739,178.533 178.493,178.164 172.99,177.807L155.764,176.869C154.91,176.818 154.16,177.286 154.091,177.915C154.022,178.543 154.659,179.095 155.513,179.146L172.717,180.083C178.219,180.44 184.465,180.809 190.753,181.222C194.792,181.487 198.849,181.769 202.737,182.079C207.626,182.468 212.623,182.885 217.564,183.337C222.604,183.797 227.585,184.294 232.33,184.832C236.736,185.331 241.283,185.886 245.754,186.485C250.355,187.1 254.875,187.761 259.079,188.453C262.86,189.075 266.788,189.777 270.63,190.53C274.601,191.309 278.48,192.142 282.009,192.998C285.108,193.748 288.344,194.608 291.485,195.527C294.732,196.477 297.877,197.49 300.661,198.519C303.063,199.405 305.572,200.435 307.975,201.533C310.436,202.657 312.786,203.853 314.776,205.06C316.51,206.106 318.284,207.326 319.914,208.636C321.537,209.941 323.021,211.332 324.175,212.729C325.275,214.056 326.266,215.532 327.049,217.099C327.799,218.598 328.364,220.18 328.659,221.795C328.727,222.166 328.78,222.55 328.82,222.942C328.858,223.322 328.885,223.71 328.899,224.105C328.908,224.574 329.434,224.95 330.072,224.943C330.71,224.936 331.22,224.549 331.211,224.08Z"/>
                    </g>
                    <g transform="matrix(12.8662,0,0,18.8409,4015.35,8410.64)">
                        <path d="M320.678,226.971L319.608,224.424C318.804,222.761 317.813,221.088 316.701,219.47C315.575,217.834 314.322,216.257 313.01,214.808C311.612,213.27 309.99,211.71 308.259,210.212C306.54,208.724 304.711,207.298 302.892,206.012C300.892,204.606 298.641,203.179 296.286,201.817C293.979,200.482 291.572,199.21 289.227,198.067C286.624,196.8 283.749,195.523 280.784,194.303C277.897,193.115 274.926,191.981 272.044,190.959C268.855,189.829 265.387,188.699 261.838,187.62C258.388,186.571 254.86,185.569 251.439,184.659C247.699,183.665 243.698,182.686 239.626,181.751C235.659,180.839 231.623,179.969 227.696,179.165C224.332,178.477 220.842,177.811 217.301,177.166C212.114,176.222 206.817,175.322 201.643,174.466C199.072,174.04 196.427,173.626 193.77,173.224C187.434,172.265 181.033,171.369 175.423,170.506C170.644,169.771 165.112,168.984 160.334,168.228C157.962,167.853 155.778,167.486 153.97,167.136L151.257,166.552C150.44,166.362 149.567,166.695 149.308,167.296C149.049,167.897 149.502,168.54 150.319,168.73L153.18,169.345C155.027,169.703 157.258,170.079 159.681,170.462C164.464,171.219 170.003,172.007 174.788,172.743C180.401,173.606 186.805,174.502 193.145,175.462C195.782,175.861 198.408,176.271 200.961,176.695C206.113,177.55 211.387,178.447 216.552,179.391C220.062,180.032 223.522,180.696 226.857,181.381C230.752,182.181 234.754,183.047 238.689,183.955C242.715,184.883 246.67,185.854 250.367,186.839C253.744,187.739 257.226,188.73 260.632,189.766C264.124,190.829 267.535,191.94 270.673,193.053C273.499,194.055 276.412,195.168 279.244,196.331C282.141,197.52 284.953,198.762 287.497,199.995C289.782,201.099 292.12,202.334 294.376,203.618C296.666,204.923 298.871,206.279 300.826,207.622C302.606,208.836 304.396,210.187 306.086,211.597C307.782,213.011 309.379,214.483 310.758,215.939C312.056,217.304 313.302,218.793 314.429,220.341C315.542,221.87 316.541,223.455 317.36,225.033L318.454,227.433C318.627,227.885 319.266,228.148 319.88,228.021C320.494,227.893 320.852,227.422 320.678,226.971Z"/>
                    </g>
                    <g transform="matrix(12.8662,0,0,18.8409,4015.35,8410.64)">
                        <path d="M317.289,226.794C316.49,225.195 315.562,223.545 314.542,221.926C313.519,220.302 312.401,218.711 311.224,217.233C309.96,215.652 308.518,214.013 306.978,212.415C305.447,210.827 303.818,209.282 302.175,207.874C300.368,206.335 298.334,204.738 296.195,203.196C294.09,201.678 291.882,200.213 289.712,198.89C287.298,197.422 284.609,195.911 281.821,194.452C279.101,193.028 276.286,191.656 273.548,190.418C270.496,189.04 267.142,187.636 263.693,186.282C260.34,184.967 256.899,183.698 253.563,182.547C249.883,181.278 245.904,180.007 241.841,178.78C237.889,177.587 233.857,176.437 229.943,175.37C226.569,174.451 223.046,173.553 219.464,172.675C214.222,171.389 208.856,170.146 203.654,168.946C201.938,168.549 200.182,168.158 198.408,167.771C191.197,166.198 183.704,164.703 177.482,163.26C173.877,162.423 169.83,161.492 166.058,160.562C163.335,159.891 160.756,159.221 158.596,158.588C157.8,158.355 156.896,158.641 156.579,159.227C156.262,159.813 156.652,160.478 157.448,160.711C159.655,161.357 162.29,162.042 165.072,162.728C168.861,163.662 172.927,164.598 176.548,165.439C182.785,166.886 190.296,168.385 197.526,169.961C199.283,170.345 201.023,170.732 202.724,171.125C207.908,172.324 213.256,173.563 218.478,174.848C222.026,175.72 225.516,176.613 228.856,177.526C232.736,178.586 236.732,179.73 240.648,180.916C244.661,182.131 248.59,183.389 252.224,184.646C255.512,185.782 258.903,187.034 262.207,188.331C265.597,189.663 268.895,191.043 271.895,192.399C274.576,193.609 277.329,194.954 279.995,196.344C282.722,197.767 285.357,199.237 287.721,200.668C289.838,201.944 291.984,203.364 294.047,204.823C296.146,206.308 298.159,207.834 299.943,209.312C301.566,210.649 303.177,212.12 304.698,213.631C306.235,215.158 307.681,216.725 308.952,218.24C310.135,219.646 311.264,221.164 312.303,222.714C313.346,224.271 314.301,225.859 315.129,227.401C315.357,227.839 316.025,228.059 316.621,227.892C317.217,227.725 317.517,227.233 317.289,226.794Z"/>
                    </g>
                    <g transform="matrix(12.8662,0,0,18.8409,4015.35,8410.64)">
                        <path d="M323.38,226.213L323.124,225.295C322.623,223.644 321.948,221.965 321.142,220.332C320.323,218.675 319.365,217.068 318.312,215.585C317.191,214.012 315.84,212.393 314.367,210.832C312.899,209.277 311.306,207.782 309.7,206.447C307.912,204.967 305.843,203.439 303.653,201.978C301.51,200.548 299.251,199.184 297.049,197.974C294.554,196.609 291.732,195.209 288.802,193.871C285.962,192.574 283.021,191.335 280.181,190.236C276.963,188.992 273.394,187.732 269.724,186.527C266.177,185.362 262.535,184.249 259.024,183.252C255.098,182.138 250.828,181.029 246.466,179.967C242.241,178.939 237.93,177.956 233.76,177.058C230.117,176.273 226.299,175.51 222.41,174.769C216.752,173.691 210.945,172.659 205.31,171.674C202.499,171.182 199.586,170.704 196.655,170.237C189.646,169.122 182.536,168.07 176.511,167.045C172.273,166.323 167.415,165.523 162.997,164.73C159.636,164.126 156.532,163.528 154.162,162.972L152.035,162.401C151.24,162.165 150.335,162.449 150.014,163.033C149.694,163.618 150.079,164.284 150.874,164.52L153.218,165.148C155.643,165.718 158.82,166.332 162.261,166.95C166.691,167.745 171.562,168.547 175.811,169.271C181.849,170.298 188.974,171.352 195.998,172.47C198.908,172.934 201.801,173.408 204.591,173.896C210.205,174.881 215.991,175.912 221.627,176.99C225.483,177.727 229.268,178.486 232.879,179.267C237.014,180.162 241.289,181.14 245.477,182.162C249.789,183.215 254.008,184.314 257.888,185.417C261.349,186.401 264.94,187.499 268.437,188.648C272.043,189.833 275.549,191.072 278.711,192.294C281.489,193.367 284.365,194.577 287.144,195.841C290.001,197.14 292.756,198.494 295.191,199.818C297.329,200.977 299.517,202.29 301.607,203.656C303.736,205.046 305.765,206.49 307.515,207.897C309.082,209.151 310.638,210.56 312.08,212.025C313.528,213.496 314.863,215.022 315.975,216.509C317.02,217.902 317.977,219.416 318.805,220.979C319.623,222.526 320.318,224.12 320.845,225.689L321.112,226.546C321.237,227.007 321.847,227.306 322.472,227.214C323.098,227.122 323.505,226.673 323.38,226.213Z"/>
                    </g>
                    <g transform="matrix(12.8662,0,0,18.8409,4015.35,8410.64)">
                        <path d="M301.878,233.112L301.318,232.599C300.096,231.471 298.903,230.26 297.722,229.013C295.983,227.176 294.274,225.262 292.559,223.416C290.415,221.123 288.216,218.59 285.96,216.12C284.994,215.061 284.013,214.016 283.03,213.002C280.915,210.841 278.649,208.525 276.308,206.255C274.756,204.749 273.169,203.265 271.579,201.856C269.432,199.959 267.112,197.975 264.715,196.015C262.351,194.083 259.912,192.173 257.49,190.393C254.875,188.473 252.048,186.499 249.14,184.556C246.282,182.646 243.346,180.766 240.459,178.996C237.993,177.483 235.4,175.969 232.751,174.466C228.861,172.26 224.849,170.079 220.934,167.973C218.95,166.904 216.908,165.843 214.847,164.789C210.019,162.321 205.093,159.899 200.603,157.541C197.768,156.052 194.77,154.506 191.848,152.963C189.875,151.922 187.936,150.882 186.107,149.862C185.424,149.481 184.449,149.58 183.932,150.082C183.414,150.585 183.549,151.302 184.232,151.683C186.082,152.714 188.042,153.766 190.038,154.82C192.962,156.363 195.962,157.911 198.799,159.401C203.299,161.764 208.237,164.192 213.075,166.665C215.115,167.708 217.137,168.759 219.1,169.816C222.992,171.914 226.981,174.084 230.847,176.281C233.463,177.768 236.021,179.266 238.455,180.763C241.306,182.515 244.204,184.376 247.027,186.266C249.893,188.187 252.681,190.138 255.26,192.035C257.643,193.788 260.042,195.667 262.367,197.57C264.736,199.507 267.028,201.468 269.15,203.344C270.715,204.725 272.273,206.182 273.805,207.657C276.141,209.906 278.413,212.196 280.529,214.334L290.304,224.584C292.091,226.399 293.872,228.283 295.683,230.088C296.942,231.343 298.213,232.559 299.51,233.69L300.102,234.201C300.511,234.562 301.241,234.61 301.731,234.31C302.221,234.009 302.287,233.472 301.878,233.112Z"/>
                    </g>
                    <g transform="matrix(12.8662,0,0,18.8409,4015.35,8410.64)">
                        <path d="M307.482,230.953L300.455,221.585C298.891,219.62 297.225,217.496 295.482,215.414C294.321,214.027 293.124,212.661 291.907,211.368C290.245,209.62 288.431,207.769 286.529,205.946C284.648,204.142 282.679,202.368 280.705,200.737C278.533,198.946 276.131,197.07 273.63,195.234C271.171,193.429 268.618,191.663 266.098,190.052C263.318,188.274 260.255,186.439 257.092,184.649C254,182.899 250.812,181.193 247.701,179.623C244.306,177.909 240.63,176.184 236.87,174.495C233.2,172.847 229.449,171.235 225.798,169.705C223.5,168.74 221.114,167.785 218.693,166.839C213.106,164.656 207.331,162.525 202.017,160.454C197.044,158.516 191.573,156.519 186.624,154.579C184.336,153.682 182.162,152.797 180.202,151.936C179.467,151.613 178.513,151.79 178.073,152.331C177.634,152.873 177.875,153.575 178.61,153.898C180.61,154.777 182.829,155.68 185.164,156.595C190.115,158.536 195.588,160.534 200.563,162.473C205.877,164.544 211.651,166.674 217.237,168.857C219.629,169.792 221.987,170.736 224.258,171.69C227.88,173.213 231.602,174.816 235.242,176.455C238.951,178.125 242.577,179.831 245.925,181.525C248.988,183.075 252.126,184.76 255.17,186.485C258.28,188.248 261.293,190.054 264.027,191.804C266.493,193.382 268.991,195.113 271.398,196.88C273.856,198.683 276.22,200.524 278.356,202.281C280.288,203.868 282.209,205.599 284.059,207.35C285.948,209.138 287.764,210.947 289.423,212.659C290.643,213.904 291.841,215.224 293.011,216.559C294.801,218.602 296.526,220.683 298.139,222.609L305.498,231.826C305.825,232.229 306.536,232.36 307.083,232.119C307.631,231.878 307.81,231.355 307.482,230.953Z"/>
                    </g>
                    <g transform="matrix(12.8662,0,0,18.8409,4015.35,8410.64)">
                        <path d="M312.458,229.688L311.579,228.433C310.473,226.894 309.284,225.284 308.038,223.685C306.8,222.097 305.505,220.522 304.182,219.041C302.757,217.451 301.202,215.791 299.573,214.155C297.958,212.533 296.269,210.937 294.573,209.454C292.723,207.853 290.696,206.185 288.584,204.555C286.499,202.947 284.331,201.375 282.185,199.928C279.838,198.349 277.269,196.717 274.614,195.127C272.007,193.566 269.318,192.046 266.68,190.65C263.794,189.124 260.658,187.563 257.437,186.046C254.287,184.562 251.056,183.119 247.903,181.788C244.485,180.344 240.822,178.894 237.086,177.483C233.432,176.103 229.708,174.76 226.073,173.494C223.004,172.426 219.808,171.375 216.571,170.341C211.785,168.812 206.909,167.321 202.224,165.873C196.153,163.999 189.513,162.156 183.612,160.384C182.02,159.906 180.483,159.434 179.027,158.967C176.978,158.311 174.794,157.605 172.619,156.882C171.192,156.407 169.769,155.925 168.39,155.444C167.616,155.174 166.689,155.417 166.322,155.987C165.955,156.557 166.286,157.239 167.06,157.509C168.455,157.995 169.895,158.483 171.339,158.963C173.528,159.691 175.725,160.402 177.787,161.062C179.265,161.536 180.824,162.015 182.439,162.5C188.33,164.268 194.961,166.108 201.022,167.98C205.696,169.424 210.561,170.909 215.334,172.436C218.539,173.461 221.702,174.505 224.739,175.565C228.342,176.824 232.034,178.159 235.656,179.531C239.345,180.928 242.962,182.363 246.337,183.792C249.445,185.108 252.629,186.535 255.735,188C258.906,189.496 261.995,191.032 264.836,192.536C267.424,193.906 270.061,195.4 272.619,196.931C275.228,198.492 277.755,200.09 280.062,201.639C282.165,203.047 284.284,204.582 286.334,206.144C288.418,207.733 290.431,209.352 292.264,210.911C293.954,212.335 295.636,213.872 297.253,215.432C298.897,217.016 300.475,218.623 301.92,220.164C303.263,221.589 304.581,223.107 305.845,224.638C307.131,226.194 308.361,227.764 309.505,229.264L310.407,230.473C310.701,230.889 311.4,231.051 311.966,230.835C312.532,230.618 312.752,230.104 312.458,229.688Z"/>
                    </g>
                </g>
                <g transform="matrix(0.441355,0,0,0.441355,-742.48,-4684.03)">
                    <path d="M3584.34,10693.3C3584.34,10648.9 3548.3,10612.8 3503.84,10612.8L2578.44,10612.8C2533.98,10612.8 2497.95,10648.9 2497.95,10693.3L2497.95,11618.7C2497.95,11663.2 2533.98,11699.2 2578.44,11699.2L3503.84,11699.2C3548.3,11699.2 3584.34,11663.2 3584.34,11618.7C3584.34,11417.5 3584.34,10894.5 3584.34,10693.3ZM3557.9,10693.3C3557.9,10663.5 3533.7,10639.3 3503.84,10639.3C3302.65,10639.3 2779.63,10639.3 2578.44,10639.3C2548.58,10639.3 2524.38,10663.5 2524.38,10693.3C2524.38,10894.5 2524.38,11417.5 2524.38,11618.7C2524.38,11648.6 2548.58,11672.8 2578.44,11672.8L3503.84,11672.8C3533.7,11672.8 3557.9,11648.6 3557.9,11618.7L3557.9,10693.3Z"/>
                </g>
            </g>
        </g>
    </g>
</svg>
