<?xml version="1.0" encoding="UTF-8" standalone="no"?>
<svg
   xmlns:dc="http://purl.org/dc/elements/1.1/"
   xmlns:cc="http://creativecommons.org/ns#"
   xmlns:rdf="http://www.w3.org/1999/02/22-rdf-syntax-ns#"
   xmlns:svg="http://www.w3.org/2000/svg"
   xmlns="http://www.w3.org/2000/svg"
   xmlns:sodipodi="http://sodipodi.sourceforge.net/DTD/sodipodi-0.dtd"
   xmlns:inkscape="http://www.inkscape.org/namespaces/inkscape"
   inkscape:version="1.0 (4035a4f, 2020-05-01)"
   sodipodi:docname="TUDO Logo_bw.svg"
   id="svg967"
   style="fill-rule:evenodd;clip-rule:evenodd;stroke-linejoin:round;stroke-miterlimit:2;"
   xml:space="preserve"
   version="1.1"
   viewBox="0 0 3308 534"
   height="100%"
   width="100%"><metadata
   id="metadata973"><rdf:RDF><cc:Work
       rdf:about=""><dc:format>image/svg+xml</dc:format><dc:type
         rdf:resource="http://purl.org/dc/dcmitype/StillImage" /><dc:title></dc:title></cc:Work></rdf:RDF></metadata><defs
   id="defs971">
        
    
            
            <clipPath
   id="_clip1">
                <rect
   id="rect835"
   height="532.75897"
   width="3307.1599"
   y="2281.3501"
   x="-3589.1499" />
            </clipPath>
            
        
                
            
                    
                    
                </defs><sodipodi:namedview
   inkscape:current-layer="svg967"
   inkscape:window-maximized="0"
   inkscape:window-y="23"
   inkscape:window-x="0"
   inkscape:cy="267"
   inkscape:cx="1654"
   inkscape:zoom="0.21523579"
   showgrid="false"
   id="namedview969"
   inkscape:window-height="806"
   inkscape:window-width="1501"
   inkscape:pageshadow="2"
   inkscape:pageopacity="0"
   guidetolerance="10"
   gridtolerance="10"
   objecttolerance="10"
   borderopacity="1"
   bordercolor="#666666"
   pagecolor="#ffffff" />
    <rect
   id="rect833"
   style="fill:none"
   height="532.75897"
   width="3307.1599"
   y="0.71199763"
   x="9.7656251e-05" /><g
   style="fill:#000000"
   id="g840"
   transform="matrix(9.79499,0,0,9.79499,0.86,-4.8981)">
                        <path
   id="path838"
   style="fill:#000000;fill-rule:nonzero"
   d="m 63.725,15.602 v 26.239 c 0,3.749 -1.95,5.472 -5.476,5.472 h -9.592 c -3.526,0 -5.475,-1.723 -5.475,-5.472 V 15.602 H 15.07 V 0.609 H 7.722 V 15.602 H 0 v 7.423 h 7.722 v 18.666 c 0,8.025 5.396,12.97 12.821,12.97 h 3.823 l 0.15,-7.42 h -3.973 c -3.522,0 -5.473,-1.875 -5.473,-5.55 V 23.025 h 20.764 v 18.816 c 0,7.948 5.549,12.82 12.823,12.82 h 9.592 c 7.274,0 12.821,-4.872 12.821,-12.82 V 15.602 Z" />
                    </g><g
   transform="translate(-1726.25,-8653.7581)"
   id="g958">
                        <g
   id="g844"
   transform="matrix(9.79499,0,0,9.79499,1727.11,8648.86)">
                            <path
   id="path842"
   style="fill:#231f20;fill-rule:nonzero"
   d="m 91.845,28.601 c -2.341,0 -3.246,-1.487 -3.246,-3.677 v -7.931 h -2.518 v -1.157 h 2.518 V 12.36 l 1.257,-0.301 v 3.777 h 3.904 v 1.157 h -3.904 v 7.881 c 0,1.486 0.402,2.545 2.091,2.545 0.68,0 1.309,-0.104 1.989,-0.23 v 1.109 c -0.705,0.152 -1.384,0.303 -2.091,0.303 z" />
                        </g>
                        <g
   id="g848"
   transform="matrix(9.79499,0,0,9.79499,1727.11,8648.86)">
                            <path
   id="path846"
   style="fill:#231f20;fill-rule:nonzero"
   d="m 106.826,22.433 h -9.617 c 0.025,1.46 0.502,2.817 1.308,3.775 0.706,0.832 1.688,1.334 3.048,1.334 1.108,0 2.065,-0.404 2.744,-1.107 0.454,-0.478 0.806,-1.033 0.956,-1.788 h 1.308 c -0.176,1.084 -0.703,1.966 -1.408,2.643 -0.905,0.906 -2.165,1.46 -3.6,1.46 -1.813,0 -3.097,-0.754 -4.005,-1.784 -1.032,-1.209 -1.61,-2.872 -1.61,-4.785 0,-1.586 0.251,-3.148 1.233,-4.481 1.058,-1.435 2.518,-2.19 4.28,-2.19 3.399,0 5.389,2.92 5.389,6.091 0,0.303 -0.026,0.527 -0.026,0.832 z m -5.363,-5.74 c -2.594,0 -4.229,2.089 -4.229,4.579 h 8.333 c -0.049,-2.391 -1.536,-4.579 -4.104,-4.579 z" />
                        </g>
                        <g
   id="g852"
   transform="matrix(9.79499,0,0,9.79499,1727.11,8648.86)">
                            <path
   id="path850"
   style="fill:#231f20;fill-rule:nonzero"
   d="m 114.984,28.75 c -1.561,0 -2.821,-0.602 -3.701,-1.485 -1.31,-1.308 -1.764,-2.995 -1.764,-5.137 0,-2.137 0.454,-3.824 1.764,-5.135 0.88,-0.88 2.14,-1.483 3.701,-1.483 2.618,0 4.557,1.709 4.859,4.257 h -1.309 c -0.279,-1.741 -1.638,-3.023 -3.55,-3.023 -1.21,0 -2.141,0.4 -2.796,1.081 -1.132,1.181 -1.385,2.669 -1.385,4.303 0,1.64 0.253,3.147 1.385,4.332 0.655,0.678 1.586,1.056 2.796,1.056 1.938,0 3.271,-1.358 3.576,-3.069 h 1.333 c -0.327,2.442 -2.267,4.303 -4.909,4.303 z" />
                        </g>
                        <g
   id="g856"
   transform="matrix(9.79499,0,0,9.79499,1727.11,8648.86)">
                            <path
   id="path854"
   style="fill:#231f20;fill-rule:nonzero"
   d="m 132,28.424 v -8.232 c 0,-2.191 -0.956,-3.499 -3.248,-3.499 -3.095,0 -4.179,2.717 -4.179,5.435 v 6.296 h -1.259 V 10.247 h 1.259 v 7.905 c 0.704,-1.613 2.493,-2.642 4.255,-2.642 2.894,0 4.432,1.785 4.432,4.606 v 8.308 z" />
                        </g>
                        <g
   id="g860"
   transform="matrix(9.79499,0,0,9.79499,1727.11,8648.86)">
                            <path
   id="path858"
   style="fill:#231f20;fill-rule:nonzero"
   d="m 146.679,28.424 v -8.232 c 0,-2.191 -0.956,-3.448 -3.249,-3.448 -3.097,0 -4.177,2.666 -4.177,5.384 v 6.296 h -1.26 V 15.836 h 1.108 l 0.152,2.29 c 0.705,-1.587 2.493,-2.616 4.254,-2.616 2.896,0 4.431,1.785 4.431,4.606 v 8.308 z" />
                        </g>
                        <g
   id="g864"
   transform="matrix(9.79499,0,0,9.79499,1727.11,8648.86)">
                            <path
   id="path862"
   style="fill:#231f20;fill-rule:nonzero"
   d="m 152.571,10.576 h 1.761 v 1.76 h -1.761 z m 0.227,5.26 h 1.334 v 12.588 h -1.334 z" />
                        </g>
                        <g
   id="g868"
   transform="matrix(9.79499,0,0,9.79499,1727.11,8648.86)">
                            <path
   id="path866"
   style="fill:#231f20;fill-rule:nonzero"
   d="m 167.35,27.242 c -0.906,1.006 -2.417,1.508 -4.079,1.508 -1.711,0 -3.172,-0.527 -4.129,-1.612 -0.704,-0.803 -1.008,-1.507 -1.057,-2.542 h 1.283 c 0.075,0.759 0.403,1.411 0.933,1.94 0.728,0.706 1.761,1.006 2.97,1.006 1.311,0 2.342,-0.3 2.972,-0.929 0.451,-0.455 0.678,-0.882 0.678,-1.612 0,-1.133 -0.805,-2.09 -2.315,-2.291 l -2.443,-0.328 c -1.031,-0.125 -2.14,-0.454 -2.845,-1.258 -0.453,-0.529 -0.705,-1.185 -0.705,-1.992 0,-1.006 0.429,-1.837 1.083,-2.439 0.907,-0.835 2.14,-1.183 3.45,-1.183 1.509,0 2.944,0.476 3.801,1.483 0.578,0.68 0.932,1.513 0.958,2.316 h -1.26 c -0.049,-0.402 -0.227,-1.033 -0.629,-1.509 -0.58,-0.681 -1.562,-1.107 -2.87,-1.107 -0.983,0 -1.712,0.173 -2.267,0.576 -0.628,0.455 -0.981,1.06 -0.981,1.737 0,1.058 0.529,1.865 2.441,2.118 l 2.391,0.328 c 2.367,0.324 3.476,1.937 3.476,3.472 0,0.934 -0.301,1.689 -0.856,2.318 z" />
                        </g>
                        <g
   id="g872"
   transform="matrix(9.79499,0,0,9.79499,1727.11,8648.86)">
                            <path
   id="path870"
   style="fill:#231f20;fill-rule:nonzero"
   d="m 176.489,28.75 c -1.561,0 -2.819,-0.602 -3.699,-1.485 -1.311,-1.308 -1.765,-2.995 -1.765,-5.137 0,-2.137 0.454,-3.824 1.765,-5.135 0.88,-0.88 2.138,-1.483 3.699,-1.483 2.618,0 4.556,1.709 4.859,4.257 h -1.307 c -0.278,-1.741 -1.637,-3.023 -3.552,-3.023 -1.208,0 -2.141,0.4 -2.796,1.081 -1.131,1.181 -1.383,2.669 -1.383,4.303 0,1.64 0.252,3.147 1.383,4.332 0.655,0.678 1.588,1.056 2.796,1.056 1.938,0 3.274,-1.358 3.575,-3.069 h 1.335 c -0.329,2.442 -2.267,4.303 -4.91,4.303 z" />
                        </g>
                        <g
   id="g876"
   transform="matrix(9.79499,0,0,9.79499,1727.11,8648.86)">
                            <path
   id="path874"
   style="fill:#231f20;fill-rule:nonzero"
   d="m 193.507,28.424 v -8.232 c 0,-2.191 -0.957,-3.499 -3.249,-3.499 -3.097,0 -4.177,2.717 -4.177,5.435 v 6.296 h -1.262 V 10.247 h 1.262 v 7.905 c 0.703,-1.613 2.49,-2.642 4.252,-2.642 2.898,0 4.433,1.785 4.433,4.606 v 8.308 z" />
                        </g>
                        <g
   id="g880"
   transform="matrix(9.79499,0,0,9.79499,1727.11,8648.86)">
                            <path
   id="path878"
   style="fill:#231f20;fill-rule:nonzero"
   d="m 209.293,22.433 h -9.616 c 0.024,1.46 0.502,2.817 1.307,3.775 0.706,0.832 1.689,1.334 3.047,1.334 1.107,0 2.065,-0.404 2.745,-1.107 0.452,-0.478 0.805,-1.033 0.956,-1.788 h 1.31 c -0.177,1.084 -0.707,1.966 -1.411,2.643 -0.907,0.906 -2.165,1.46 -3.6,1.46 -1.815,0 -3.096,-0.754 -4.002,-1.784 -1.032,-1.209 -1.613,-2.872 -1.613,-4.785 0,-1.586 0.252,-3.148 1.234,-4.481 1.058,-1.435 2.517,-2.19 4.281,-2.19 3.399,0 5.387,2.92 5.387,6.091 0,0.303 -0.025,0.527 -0.025,0.832 z m -5.362,-5.74 c -2.594,0 -4.23,2.089 -4.23,4.579 h 8.333 c -0.051,-2.391 -1.536,-4.579 -4.103,-4.579 z" />
                        </g>
                        <g
   id="g884"
   transform="matrix(9.79499,0,0,9.79499,1727.11,8648.86)">
                            <path
   id="path882"
   style="fill:#231f20;fill-rule:nonzero"
   d="m 227.068,28.398 -0.152,-2.291 c -0.705,1.612 -2.492,2.619 -4.255,2.619 -2.895,0 -4.431,-1.788 -4.431,-4.607 V 15.81 h 1.259 v 8.234 c 0,2.189 0.956,3.449 3.249,3.449 3.094,0 4.178,-2.668 4.178,-5.388 V 15.81 h 1.26 v 12.588 z" />
                        </g>
                        <g
   id="g888"
   transform="matrix(9.79499,0,0,9.79499,1727.11,8648.86)">
                            <path
   id="path886"
   style="fill:#231f20;fill-rule:nonzero"
   d="m 241.848,28.424 v -8.232 c 0,-2.191 -0.958,-3.448 -3.249,-3.448 -3.097,0 -4.181,2.666 -4.181,5.384 v 6.296 h -1.257 V 15.836 h 1.107 l 0.15,2.29 c 0.706,-1.587 2.495,-2.616 4.256,-2.616 2.896,0 4.431,1.785 4.431,4.606 v 8.308 z" />
                        </g>
                        <g
   id="g892"
   transform="matrix(9.79499,0,0,9.79499,1727.11,8648.86)">
                            <path
   id="path890"
   style="fill:#231f20;fill-rule:nonzero"
   d="m 247.739,10.576 h 1.762 v 1.76 h -1.762 z m 0.226,5.26 h 1.332 v 12.588 h -1.332 z" />
                        </g>
                        <g
   id="g896"
   transform="matrix(9.79499,0,0,9.79499,1727.11,8648.86)">
                            <path
   id="path894"
   style="fill:#231f20;fill-rule:nonzero"
   d="m 258.515,28.424 h -1.286 l -4.983,-12.588 h 1.434 l 4.231,10.8 4.051,-10.8 h 1.337 z" />
                        </g>
                        <g
   id="g900"
   transform="matrix(9.79499,0,0,9.79499,1727.11,8648.86)">
                            <path
   id="path898"
   style="fill:#231f20;fill-rule:nonzero"
   d="m 275.807,22.433 h -9.616 c 0.024,1.46 0.503,2.817 1.308,3.775 0.704,0.832 1.688,1.334 3.045,1.334 1.111,0 2.066,-0.404 2.745,-1.107 0.454,-0.478 0.806,-1.033 0.956,-1.788 h 1.31 c -0.176,1.084 -0.704,1.966 -1.409,2.643 -0.908,0.906 -2.167,1.46 -3.602,1.46 -1.811,0 -3.097,-0.754 -4.001,-1.784 -1.033,-1.209 -1.611,-2.872 -1.611,-4.785 0,-1.586 0.25,-3.148 1.233,-4.481 1.059,-1.435 2.518,-2.19 4.279,-2.19 3.399,0 5.388,2.92 5.388,6.091 0,0.303 -0.025,0.527 -0.025,0.832 z m -5.363,-5.74 c -2.59,0 -4.229,2.089 -4.229,4.579 h 8.334 c -0.05,-2.391 -1.536,-4.579 -4.105,-4.579 z" />
                        </g>
                        <g
   id="g904"
   transform="matrix(9.79499,0,0,9.79499,1727.11,8648.86)">
                            <path
   id="path902"
   style="fill:#231f20;fill-rule:nonzero"
   d="m 284.846,16.918 c -3.149,0 -4.002,2.82 -4.002,5.464 v 6.042 h -1.261 V 15.836 h 1.107 l 0.154,2.541 c 0.552,-1.737 2.238,-2.668 4.002,-2.668 0.402,0 0.83,0 1.234,0.076 v 1.26 c -0.404,-0.102 -0.832,-0.127 -1.234,-0.127 z" />
                        </g>
                        <g
   id="g908"
   transform="matrix(9.79499,0,0,9.79499,1727.11,8648.86)">
                            <path
   id="path906"
   style="fill:#231f20;fill-rule:nonzero"
   d="m 297.055,27.242 c -0.904,1.006 -2.415,1.508 -4.079,1.508 -1.709,0 -3.171,-0.527 -4.129,-1.612 -0.706,-0.803 -1.005,-1.507 -1.055,-2.542 h 1.282 c 0.076,0.759 0.404,1.411 0.933,1.94 0.728,0.706 1.761,1.006 2.969,1.006 1.312,0 2.343,-0.3 2.97,-0.929 0.455,-0.455 0.682,-0.882 0.682,-1.612 0,-1.133 -0.805,-2.09 -2.318,-2.291 l -2.442,-0.328 c -1.033,-0.125 -2.14,-0.454 -2.843,-1.258 -0.452,-0.529 -0.705,-1.185 -0.705,-1.992 0,-1.006 0.427,-1.837 1.081,-2.439 0.907,-0.835 2.14,-1.183 3.448,-1.183 1.513,0 2.947,0.476 3.805,1.483 0.58,0.68 0.93,1.513 0.955,2.316 h -1.259 c -0.05,-0.402 -0.225,-1.033 -0.628,-1.509 -0.582,-0.681 -1.56,-1.107 -2.873,-1.107 -0.981,0 -1.71,0.173 -2.264,0.576 -0.629,0.455 -0.982,1.06 -0.982,1.737 0,1.058 0.53,1.865 2.439,2.118 l 2.395,0.328 c 2.367,0.324 3.475,1.937 3.475,3.472 0,0.934 -0.303,1.689 -0.857,2.318 z" />
                        </g>
                        <g
   id="g912"
   transform="matrix(9.79499,0,0,9.79499,1727.11,8648.86)">
                            <path
   id="path910"
   style="fill:#231f20;fill-rule:nonzero"
   d="m 301.715,10.576 h 1.761 v 1.76 h -1.761 z m 0.225,5.26 h 1.336 v 12.588 h -1.336 z" />
                        </g>
                        <g
   id="g916"
   transform="matrix(9.79499,0,0,9.79499,1727.11,8648.86)">
                            <path
   id="path914"
   style="fill:#231f20;fill-rule:nonzero"
   d="m 312.238,28.601 c -2.341,0 -3.249,-1.487 -3.249,-3.677 v -7.931 h -2.516 v -1.157 h 2.516 V 12.36 l 1.258,-0.301 v 3.777 h 3.903 v 1.157 h -3.903 v 7.881 c 0,1.486 0.403,2.545 2.09,2.545 0.681,0 1.309,-0.104 1.992,-0.23 v 1.109 c -0.706,0.152 -1.386,0.303 -2.091,0.303 z" />
                        </g>
                        <g
   id="g920"
   transform="matrix(9.79499,0,0,9.79499,1727.11,8648.86)">
                            <path
   id="path918"
   style="fill:#231f20;fill-rule:nonzero"
   d="m 327.496,28.501 c -1.562,0 -1.991,-1.133 -1.991,-2.469 -0.68,1.789 -2.593,2.718 -4.532,2.718 -2.44,0 -4.332,-1.46 -4.332,-3.876 0,-2.24 1.738,-3.575 4.234,-3.75 l 4.63,-0.33 v -1.232 c 0,-2.091 -1.411,-2.869 -3.323,-2.869 -1.988,0 -3.499,0.904 -3.626,2.767 h -1.258 c 0.178,-2.542 2.165,-3.95 4.884,-3.95 1.712,0 3.575,0.578 4.256,2.315 0.301,0.78 0.326,1.585 0.326,2.418 v 5.739 c 0,0.857 0.127,1.358 0.983,1.358 0.15,0 0.226,0 0.352,-0.025 v 1.109 c -0.303,0.049 -0.303,0.077 -0.603,0.077 z m -1.991,-6.546 -4.506,0.277 c -1.864,0.123 -3.071,1.104 -3.071,2.642 0,1.813 1.359,2.72 3.145,2.72 3.173,0 4.432,-2.569 4.432,-4.986 z m -6.342,-10.802 h 1.508 v 1.586 h -1.508 z m 4.63,0 h 1.535 v 1.586 h -1.535 z" />
                        </g>
                        <g
   id="g924"
   transform="matrix(9.79499,0,0,9.79499,1727.11,8648.86)">
                            <path
   id="path922"
   style="fill:#231f20;fill-rule:nonzero"
   d="m 335.548,28.601 c -2.341,0 -3.249,-1.487 -3.249,-3.677 v -7.931 h -2.517 v -1.157 h 2.517 V 12.36 l 1.259,-0.301 v 3.777 h 3.902 v 1.157 h -3.902 v 7.881 c 0,1.486 0.402,2.545 2.092,2.545 0.677,0 1.308,-0.104 1.988,-0.23 v 1.109 c -0.705,0.152 -1.386,0.303 -2.09,0.303 z" />
                        </g>
                        <g
   id="g928"
   transform="matrix(9.79499,0,0,9.79499,1727.11,8648.86)">
                            <path
   id="path926"
   style="fill:#231f20;fill-rule:nonzero"
   d="m 96.579,54.674 -0.15,-2.215 C 95.748,54.02 93.936,55 92.249,55 90.815,55 89.731,54.549 88.9,53.818 c -1.41,-1.233 -2.064,-3.249 -2.064,-5.411 0,-2.065 0.631,-4.08 1.964,-5.339 0.83,-0.804 1.964,-1.311 3.423,-1.311 1.789,0 3.525,1.008 4.206,2.445 v -7.704 h 1.257 v 18.176 z m -1.712,-10.7 c -0.629,-0.603 -1.485,-0.981 -2.644,-0.981 -1.183,0 -2.038,0.427 -2.693,1.108 -0.983,1.056 -1.41,2.669 -1.41,4.278 0,1.79 0.502,3.476 1.661,4.509 0.631,0.553 1.435,0.881 2.495,0.881 1.106,0 1.936,-0.405 2.565,-1.01 1.134,-1.103 1.613,-2.641 1.613,-4.38 0,-1.862 -0.428,-3.322 -1.587,-4.405 z" />
                        </g>
                        <g
   id="g932"
   transform="matrix(9.79499,0,0,9.79499,1727.11,8648.86)">
                            <path
   id="path930"
   style="fill:#231f20;fill-rule:nonzero"
   d="m 110.728,53.491 c -0.881,0.881 -2.113,1.509 -3.674,1.509 -1.562,0 -2.794,-0.628 -3.679,-1.509 -1.308,-1.308 -1.784,-2.97 -1.784,-5.112 0,-2.139 0.476,-3.802 1.784,-5.11 0.885,-0.882 2.117,-1.512 3.679,-1.512 1.561,0 2.793,0.63 3.674,1.512 1.31,1.308 1.788,2.971 1.788,5.11 0,2.142 -0.478,3.804 -1.788,5.112 z m -0.905,-9.39 c -0.654,-0.681 -1.562,-1.108 -2.769,-1.108 -1.207,0 -2.116,0.427 -2.77,1.108 -1.133,1.184 -1.41,2.643 -1.41,4.278 0,1.637 0.277,3.099 1.41,4.282 0.654,0.68 1.563,1.108 2.77,1.108 1.207,0 2.115,-0.428 2.769,-1.108 1.134,-1.183 1.408,-2.645 1.408,-4.282 0,-1.635 -0.274,-3.094 -1.408,-4.278 z" />
                        </g>
                        <g
   id="g936"
   transform="matrix(9.79499,0,0,9.79499,1727.11,8648.86)">
                            <path
   id="path934"
   style="fill:#231f20;fill-rule:nonzero"
   d="m 121.68,43.167 c -3.148,0 -4.003,2.823 -4.003,5.467 v 6.04 h -1.259 v -12.59 h 1.106 l 0.153,2.546 c 0.554,-1.739 2.24,-2.671 4.003,-2.671 0.403,0 0.831,0 1.234,0.078 v 1.258 c -0.403,-0.1 -0.831,-0.128 -1.234,-0.128 z" />
                        </g>
                        <g
   id="g940"
   transform="matrix(9.79499,0,0,9.79499,1727.11,8648.86)">
                            <path
   id="path938"
   style="fill:#231f20;fill-rule:nonzero"
   d="m 130.132,54.852 c -2.34,0 -3.247,-1.488 -3.247,-3.677 v -7.932 h -2.517 v -1.159 h 2.517 v -3.472 l 1.26,-0.304 v 3.776 h 3.902 v 1.159 h -3.902 v 7.882 c 0,1.483 0.399,2.542 2.09,2.542 0.679,0 1.309,-0.099 1.987,-0.226 v 1.108 c -0.704,0.151 -1.385,0.303 -2.09,0.303 z" />
                        </g>
                        <g
   id="g944"
   transform="matrix(9.79499,0,0,9.79499,1727.11,8648.86)">
                            <path
   id="path942"
   style="fill:#231f20;fill-rule:nonzero"
   d="m 151.61,54.674 v -8.232 c 0,-2.191 -0.807,-3.498 -2.998,-3.498 -0.956,0 -1.661,0.325 -2.24,0.855 -0.982,0.932 -1.485,2.239 -1.485,3.753 v 7.122 h -1.284 v -8.232 c 0,-2.191 -0.831,-3.498 -3.021,-3.498 -0.957,0 -1.688,0.325 -2.242,0.855 -1.133,1.052 -1.51,2.794 -1.51,4.58 v 6.295 h -1.258 v -12.59 h 1.108 l 0.15,2.167 c 0.655,-1.435 2.015,-2.494 3.825,-2.494 2.194,0 3.476,1.083 3.98,2.721 0.655,-1.56 1.989,-2.721 4.054,-2.721 2.945,0 4.18,1.914 4.18,4.61 v 8.307 z" />
                        </g>
                        <g
   id="g948"
   transform="matrix(9.79499,0,0,9.79499,1727.11,8648.86)">
                            <path
   id="path946"
   style="fill:#231f20;fill-rule:nonzero"
   d="m 166.188,54.649 -0.154,-2.291 c -0.705,1.611 -2.491,2.62 -4.254,2.62 -2.896,0 -4.431,-1.789 -4.431,-4.61 v -8.306 h 1.259 v 8.231 c 0,2.191 0.957,3.449 3.248,3.449 3.097,0 4.178,-2.669 4.178,-5.387 v -6.293 h 1.26 v 12.587 z" />
                        </g>
                        <g
   id="g952"
   transform="matrix(9.79499,0,0,9.79499,1727.11,8648.86)">
                            <path
   id="path950"
   style="fill:#231f20;fill-rule:nonzero"
   d="m 180.965,54.674 v -8.232 c 0,-2.191 -0.957,-3.449 -3.246,-3.449 -3.098,0 -4.181,2.669 -4.181,5.386 v 6.295 h -1.258 v -12.59 h 1.107 l 0.151,2.293 c 0.706,-1.587 2.493,-2.62 4.255,-2.62 2.897,0 4.433,1.791 4.433,4.61 v 8.307 z" />
                        </g>
                        <g
   id="g956"
   transform="matrix(9.79499,0,0,9.79499,1727.11,8648.86)">
                            <path
   id="path954"
   style="fill:#231f20;fill-rule:nonzero"
   d="m 195.569,54.674 -0.152,-2.215 C 194.739,54.02 192.925,55 191.236,55 c -1.434,0 -2.516,-0.451 -3.349,-1.182 -1.409,-1.233 -2.063,-3.249 -2.063,-5.411 0,-2.065 0.631,-4.08 1.966,-5.339 0.831,-0.804 1.961,-1.311 3.422,-1.311 1.788,0 3.527,1.008 4.205,2.445 v -7.704 h 1.26 v 18.176 z m -1.715,-10.7 c -0.629,-0.603 -1.484,-0.981 -2.642,-0.981 -1.183,0 -2.039,0.427 -2.694,1.108 -0.981,1.056 -1.411,2.669 -1.411,4.278 0,1.79 0.506,3.476 1.661,4.509 0.631,0.553 1.437,0.881 2.495,0.881 1.107,0 1.938,-0.405 2.567,-1.01 1.133,-1.103 1.613,-2.641 1.613,-4.38 0,-1.862 -0.429,-3.322 -1.589,-4.405 z" />
                        </g>
                    </g>
</svg>
